<svg width="77.000000" height="77.000000" viewBox="0 0 77 77" fill="none" xmlns="http://www.w3.org/2000/svg" xmlns:xlink="http://www.w3.org/1999/xlink">
	<desc>
			Created with Pixso.
	</desc>
	<defs/>
	<circle id="Ellipse 42" cx="38.500000" cy="38.500000" r="38.500000" fill="#FFFFFF"/>
	<circle id="Ellipse 42" cx="38.500000" cy="38.500000" r="36.500000" stroke="#DA3A8D" stroke-width="4.000000"/>
	<mask id="mask1_355" mask-type="alpha" maskUnits="userSpaceOnUse" x="24.552734" y="19.937500" width="27.894531" height="37.125000">
		<rect id="Rectangle 21" x="24.552734" y="19.937500" width="27.894531" height="37.125145" fill="#DA3A8D"/>
	</mask>
	<g mask="url(#mask1_355)">
		<path id="Tracé 1" d="M38.4346 57.0449C34.3223 57.0449 30.2109 57.0449 26.0986 57.0449C25.2383 57.043 24.5742 56.4316 24.5732 55.6348C24.5703 52.959 24.5186 50.2812 24.5928 47.6055C24.6338 46.1191 25.209 44.7305 26.0205 43.4434C26.8057 42.2012 27.835 41.1504 29.1123 40.3223C30.4307 39.4688 31.874 38.8711 33.4795 38.6641C36.2275 38.3066 38.9932 38.502 41.75 38.5039C43.3857 38.5059 44.9834 38.8535 46.4502 39.5625C49.0635 40.8242 50.9131 42.7344 51.8457 45.3184C52.1533 46.1699 52.291 47.1035 52.3252 48.0059C52.416 50.4492 52.3994 52.8984 52.4473 55.3438C52.4658 56.3477 51.7119 57.0723 50.5771 57.0605C46.5293 57.0195 42.4824 57.0449 38.4346 57.0449ZM49.2998 54.1719C49.2695 52.1426 49.2803 50.0176 49.248 47.9863C49.2227 46.3965 48.5488 45.0254 47.4502 43.8457C45.8613 42.1367 43.7783 41.3672 41.3662 41.3438C39.3037 41.3223 37.2393 41.3359 35.1758 41.3457C34.7979 41.3477 34.4111 41.3652 34.042 41.4375C32.0977 41.8125 30.4424 42.6406 29.2363 44.1348C28.3682 45.2109 27.7451 46.4141 27.6895 47.7559C27.6074 49.7598 27.668 51.7676 27.668 53.7754L27.668 54.1719L49.2998 54.1719Z" fill-rule="nonzero" fill="#DA3A8D"/>
	</g>
	<g mask="url(#mask1_355)">
		<path id="Tracé 2" d="M38.3447 37.0625C33.2832 37.0352 29.5127 33.2285 29.2207 29.1797C28.8262 23.7012 33.4668 19.957 38.3496 19.9375C40.8965 19.9277 43.1514 20.7324 44.9922 22.3887C46.8389 24.0508 47.7666 26.125 47.7705 28.4727C47.7744 30.8359 46.8555 32.9355 44.9795 34.5957C43.1367 36.2246 40.9248 37.0859 38.3447 37.0625ZM32.3135 28.4688C32.1562 31.4766 35.167 34.4629 38.8525 34.2031C41.9736 33.9824 44.6953 31.7324 44.667 28.4141C44.6406 25.3066 42.0664 22.8203 38.4268 22.793C35.0664 22.7676 32.2471 25.3398 32.3135 28.4688Z" fill-rule="nonzero" fill="#DA3A8D"/>
	</g>
</svg>
