<svg width="33.273438" height="35.919922" viewBox="0 0 33.2734 35.9199" fill="none" xmlns="http://www.w3.org/2000/svg" xmlns:xlink="http://www.w3.org/1999/xlink">
	<desc>
			Created with Pixso.
	</desc>
	<defs/>
	<mask id="mask1_2305" mask-type="alpha" maskUnits="userSpaceOnUse" x="0.000000" y="0.000000" width="33.273438" height="35.919922">
		<rect id="Rectangle 74" width="33.273090" height="35.919281" fill="#707070"/>
	</mask>
	<g mask="url(#mask1_2305)">
		<path id="Tracé 33" d="M0.0107422 18.498C0.0107422 16.0957 0.0332031 13.6934 0 11.291C-0.0126953 10.334 0.405273 9.67969 1.18652 9.22656C3.43262 7.91992 5.69141 6.63672 7.93945 5.33203C9.96777 4.1543 11.9863 2.95898 14.0137 1.77734C14.8672 1.2793 15.7334 0.800781 16.5898 0.306641C17.4033 -0.162109 18.1748 -0.0644531 18.96 0.40625C20.7178 1.46094 22.4912 2.49023 24.2568 3.5332C25.5801 4.3125 26.9014 5.0957 28.2227 5.87891C29.5244 6.65039 30.8164 7.43945 32.1309 8.1875C32.917 8.63672 33.2705 9.28711 33.2695 10.1738C33.2656 15 33.2627 19.8281 33.2734 24.6543C33.2754 25.5547 32.8555 26.1777 32.1191 26.6133C30.4346 27.6094 28.7393 28.5859 27.0527 29.5742C25.7002 30.3691 24.3564 31.1758 23.0039 31.9688C20.8896 33.207 18.7725 34.4434 16.6504 35.6699C16.0732 36.0039 15.4707 36 14.8838 35.6738C14.0576 35.2109 13.2344 34.7422 12.4111 34.2754C10.5527 33.2246 8.69336 32.1738 6.83789 31.1172C4.91016 30.0195 2.98242 28.9219 1.0625 27.8105C0.374023 27.4121 0.015625 26.7969 0.015625 25.9922C0.0136719 23.4941 0.0107422 20.9961 0.0107422 18.498ZM2.00879 11.9434C1.9834 12.0273 1.97754 12.0391 1.97754 12.0488C1.97559 16.6328 1.97168 21.2188 1.98047 25.8047C1.98145 25.9297 2.08984 26.1035 2.19922 26.1738C2.58008 26.418 2.98438 26.623 3.37695 26.8477C5.61621 28.1191 7.85547 29.3926 10.0947 30.666C11.2471 31.3223 12.3975 31.9805 13.5498 32.6348C13.9951 32.8887 14.4424 33.1387 14.9297 33.4121C14.9512 33.2402 14.9814 33.1074 14.9814 32.9766C14.9844 30.752 14.9844 28.5293 14.9854 26.3047C14.9854 26.1035 14.9717 25.9023 14.9932 25.7031C15.0244 25.4082 15.123 25.1367 15.4541 25.0566C16.0889 24.9062 16.5137 25.1289 16.5156 25.9102C16.5215 28.3145 16.5156 30.7168 16.5156 33.1211L16.5156 33.4434C17.0957 33.1113 17.6221 32.8125 18.1455 32.5078C19.9619 31.4512 21.7793 30.3965 23.5938 29.3379C26.0742 27.8887 28.5498 26.4336 31.0322 24.9902C31.2285 24.875 31.3057 24.7539 31.3057 24.5215C31.2979 20.168 31.2998 15.8145 31.2988 11.4609C31.2988 11.3613 31.2891 11.2598 31.2812 11.1016C30.9082 11.3457 30.584 11.5703 30.2471 11.7754C28.3613 12.9219 26.4736 14.0664 24.584 15.207C24.0625 15.5215 23.5381 15.8359 22.998 16.1152C22.7236 16.2598 22.3516 16.084 22.1445 15.7832C21.9473 15.4961 21.9541 15.2148 22.2031 14.9492C22.3604 14.7832 22.54 14.627 22.7344 14.5078C24.6699 13.3184 26.6123 12.1387 28.5508 10.9551C29.2285 10.541 29.9043 10.123 30.624 9.68164C30.543 9.61914 30.4883 9.56836 30.4248 9.5332C29.8057 9.17383 29.1973 8.79297 28.5566 8.47852C28.3789 8.39062 28.0654 8.42969 27.8799 8.53125C26.5889 9.23828 25.3174 9.98438 24.0342 10.707C22.4678 11.5898 20.8906 12.4551 19.3252 13.3418C17.168 14.5645 15.0195 15.8047 12.8604 17.0254C12.6602 17.1387 12.5811 17.2539 12.583 17.4863C12.5938 18.8145 12.5889 20.1426 12.584 21.4707C12.5811 22.2832 12.1826 22.7266 11.4844 22.7031C11.0176 22.6875 10.7803 22.3438 10.5137 22.0293C10.4258 21.9258 10.2598 21.8223 10.1357 21.8281C9.63574 21.8574 9.29688 21.6289 9.0127 21.25C8.94336 21.1582 8.80078 21.0723 8.68945 21.0684C8.2627 21.0547 7.94141 20.8711 7.71289 20.5234C7.58691 20.332 7.44238 20.2324 7.19824 20.2324C6.67578 20.2363 6.2793 19.8418 6.26758 19.3203C6.25293 18.6484 6.26074 17.9746 6.25293 17.3027C6.24316 16.4922 6.22266 15.6797 6.2168 14.8691C6.20996 14.0039 6.58105 13.3535 7.3457 12.9336C7.89844 12.6309 8.44824 12.3203 8.99805 12.0117C10.4385 11.2051 11.8809 10.4004 13.3193 9.58984C15.6729 8.26172 18.0254 6.92969 20.3779 5.59961C20.9238 5.29102 21.4658 4.97461 22.0449 4.64258C21.9375 4.56055 21.8701 4.49609 21.793 4.44922C20.6855 3.7793 19.5596 3.13867 18.4736 2.43359C17.9102 2.06836 17.4141 1.92188 16.8799 2.42969C14.5811 3.75 12.25 5.08008 9.95703 6.41211C8.18262 7.44141 6.42383 8.49609 4.6543 9.53516C4.06152 9.88281 3.45898 10.2148 2.83203 10.5703C2.92383 10.6484 2.98926 10.7129 3.06543 10.7637C3.52051 11.0664 3.97852 11.3652 4.43359 11.668C4.89648 11.9766 5.37695 12.2656 5.81055 12.6113C6.15137 12.8848 6.17285 13.3926 5.92676 13.6914C5.65723 14.0176 5.24121 14.0762 4.84766 13.8262C4.33301 13.498 3.82324 13.1621 3.31445 12.8262C2.8877 12.543 2.46484 12.252 2.00879 11.9434ZM10.4609 19.7637C10.4961 19.7441 10.5312 19.7266 10.5664 19.707L10.5664 19.4004C10.5674 18.6523 10.5713 17.9043 10.5654 17.1562C10.5596 16.4121 10.9043 15.8613 11.5244 15.4961C12.5557 14.8867 13.6006 14.3008 14.6436 13.7129C16.1191 12.8809 17.6016 12.0625 19.0762 11.2285C21.0352 10.1211 22.9902 9.00586 24.9453 7.89258C25.377 7.64648 25.8018 7.38867 26.29 7.10156C25.6807 6.75 25.1104 6.47266 24.5986 6.11133C24.1904 5.82422 23.8848 5.88672 23.4834 6.11719C21.6494 7.16992 19.7959 8.18555 17.9531 9.2207C16.083 10.2734 14.2178 11.3301 12.3506 12.3867C11.0322 13.1309 9.71289 13.873 8.40039 14.627C8.31348 14.6777 8.23438 14.8262 8.2334 14.9316C8.22168 15.9316 8.22656 16.9336 8.22852 17.9336C8.22949 18.0957 8.95312 18.8887 9.1123 18.9082C9.52246 18.8828 9.87109 19.082 10.1045 19.4004C10.2031 19.5371 10.3408 19.6445 10.4609 19.7637Z" fill-rule="nonzero" fill="#707070"/>
	</g>
	<g mask="url(#mask1_2305)">
		<path id="Tracé 34" d="M14.9873 21.7832C14.9873 21.2891 14.9824 20.793 14.9883 20.2988C14.9941 19.8633 15.2607 19.6113 15.7012 19.6055C16.1953 19.5996 16.502 19.8418 16.5098 20.2832C16.5225 21.1055 16.5195 21.9277 16.5127 22.75C16.5107 22.998 16.4912 23.252 16.4463 23.4961C16.3877 23.8223 15.9785 24.1191 15.665 24.0938C15.3535 24.0703 14.9971 23.6992 14.9902 23.3652C14.9795 22.8379 14.9873 22.3105 14.9873 21.7832Z" fill-rule="nonzero" fill="#707070"/>
	</g>
</svg>
