<svg width="30.345703" height="43.156250" viewBox="0 0 30.3457 43.1562" fill="none" xmlns="http://www.w3.org/2000/svg" xmlns:xlink="http://www.w3.org/1999/xlink">
	<desc>
			Created with Pixso.
	</desc>
	<defs/>
	<mask id="mask1_2298" mask-type="alpha" maskUnits="userSpaceOnUse" x="0.000000" y="0.000000" width="30.344727" height="43.156250">
		<rect id="Rectangle 73" x="14.184570" width="17.310102" height="39.582161" transform="rotate(21 14.184570 0.000000)" fill="#707070"/>
	</mask>
	<g mask="url(#mask1_2298)">
		<path id="Tracé 30" d="M14.1143 38.5605C13.9971 38.8691 13.8721 39.1523 13.7061 39.4121C13.1904 40.2188 12.4854 40.8145 11.6406 41.2539C11.5361 41.3086 11.4395 41.3262 11.3223 41.2812C9.10449 40.4277 6.88477 39.5762 4.6084 38.7012C5.95215 37.6992 6.74512 36.3418 7.35938 34.8594C6.96582 35.4609 6.53418 36.0293 6.0166 36.5312C5.30273 37.2207 4.49609 37.7754 3.58691 38.1758C3.50586 38.2109 3.42676 38.25 3.32617 38.2109C2.2373 37.7891 1.14844 37.373 0.00585938 36.9336C0.21875 36.8145 0.393555 36.7266 0.55957 36.623C1.50586 36.0254 2.20312 35.1816 2.83594 34.2812C3.81445 32.8887 4.58398 31.3809 5.2793 29.8301C5.75781 28.7617 6.16602 27.6699 6.57812 26.5762C6.66113 26.3574 6.74512 26.334 6.95312 26.4141C11.3994 28.1289 15.8486 29.8359 20.2998 31.5391C20.499 31.6152 20.5322 31.6914 20.4551 31.8906C19.5664 34.2168 18.6484 36.5312 17.4502 38.7188C16.918 39.6914 16.3467 40.6387 15.5781 41.4492C15.4043 41.6309 15.2119 41.8008 15.0127 41.9551C14.5752 42.2988 14.1152 42.4395 13.5752 42.1504C13.2822 41.9941 12.9541 41.9004 12.6387 41.7871C12.4541 41.7188 12.4365 41.6719 12.6074 41.543C13.5186 40.8535 13.9355 39.8789 14.1475 38.7949C14.1602 38.7305 14.1885 38.6582 14.1143 38.5605Z" fill-rule="nonzero" fill="#707070"/>
	</g>
	<g mask="url(#mask1_2298)">
		<path id="Tracé 31" d="M15.375 24.4043C13.166 23.5566 10.959 22.7051 8.74707 21.8652C8.49609 21.7695 8.42383 21.6641 8.56152 21.4277C8.61719 21.332 8.64355 21.2188 8.68457 21.1152C8.82324 20.7656 8.98828 20.6777 9.34375 20.7637C12.0557 21.4238 14.8096 20.3594 16.3857 18.0605C17.0273 17.125 17.3438 16.0723 17.5508 14.9785C17.9531 12.8496 18.7109 10.8359 19.5098 8.83398C20.0566 7.4668 20.624 6.10742 21.3867 4.8418C21.5908 4.50195 21.8105 4.17188 22.0957 3.89453C22.4492 3.55078 22.833 3.33398 23.3545 3.52148C23.9014 3.71484 24.0771 4.13867 24.1006 4.66016C24.1309 5.31445 24.0059 5.95508 23.834 6.58203C23.0957 9.2832 22.127 11.9004 20.8984 14.416C20.4766 15.2812 19.9639 16.1035 19.5137 16.9551C17.9707 19.8789 19.0254 23.7285 21.8389 25.4766C22.0205 25.5879 22.21 25.6855 22.3916 25.7969C22.5928 25.918 22.6475 26.0996 22.5869 26.3203C22.377 27.0879 22.377 27.0879 21.6348 26.8027L15.375 24.4043Z" fill-rule="nonzero" fill="#707070"/>
	</g>
	<g mask="url(#mask1_2298)">
		<path id="Tracé 32" d="M14.9365 25.5723C17.1455 26.4219 19.3535 27.2734 21.5674 28.1113C21.8086 28.2031 21.8447 28.2949 21.748 28.5273C21.5156 29.0781 21.3008 29.6387 21.1025 30.2051C21.0254 30.4258 20.9453 30.4473 20.7344 30.3652C17.4453 29.0938 14.1533 27.834 10.8623 26.5703C9.71484 26.1289 8.57031 25.6836 7.41895 25.252C7.19824 25.1699 7.14453 25.0879 7.24023 24.8594C7.47168 24.3066 7.68848 23.748 7.88379 23.1816C7.9668 22.9414 8.06738 22.9297 8.28125 23.0137C10.4971 23.873 12.7168 24.7207 14.9365 25.5723Z" fill-rule="nonzero" fill="#707070"/>
	</g>
</svg>
