<svg width="29.049805" height="31.404297" viewBox="0 0 29.0498 31.4043" fill="none" xmlns="http://www.w3.org/2000/svg" xmlns:xlink="http://www.w3.org/1999/xlink">
	<desc>
			Created with Pixso.
	</desc>
	<defs/>
	<mask id="mask1_2293" mask-type="alpha" maskUnits="userSpaceOnUse" x="0.000000" y="0.000000" width="29.049805" height="31.404297">
		<rect id="Rectangle 71" width="29.049341" height="31.403828" fill="#FFFFFF"/>
	</mask>
	<g mask="url(#mask1_2293)">
		<path id="Tracé 6" d="M0 20.7812C0.489258 19.8027 1.0127 18.9277 1.37207 17.9883C1.67285 17.2012 2.13867 16.9609 2.91992 17.0645C3.32031 17.1172 3.73438 17.0586 4.14062 17.0801C4.4707 17.0957 4.61523 16.9941 4.57617 16.6406C4.50684 16.0137 4.50586 15.3809 4.5752 14.7539C4.61523 14.3965 4.46582 14.3145 4.1377 14.3184C2.93457 14.332 1.73145 14.3105 0.52832 14.3262C0.126953 14.332 -0.0175781 14.291 0.21582 13.8574C0.697266 12.9629 1.14648 12.0488 1.5791 11.1289C1.75781 10.748 1.97461 10.5781 2.42285 10.5996C3.30957 10.6426 4.19922 10.6035 5.08789 10.6172C5.38672 10.623 5.53027 10.5391 5.64844 10.2344C7.83594 4.57422 11.9512 1.20898 17.9121 0.214844C21.6641 -0.412109 25.1982 0.333984 28.417 2.42969C28.7363 2.63867 28.7656 2.80078 28.6191 3.13086C28.0938 4.31445 27.5869 5.50586 27.1084 6.70898C26.9473 7.11133 26.7969 7.0957 26.4775 6.87891C24.2832 5.38281 21.8477 4.75781 19.2129 5.02148C15.6729 5.375 12.9229 7.03125 11.0752 10.1172C10.8135 10.5547 10.9277 10.623 11.3838 10.6211C15.8457 10.6094 20.3076 10.6133 24.7705 10.6113C25.4512 10.6113 25.4492 10.6113 25.1807 11.2441C24.8125 12.1113 24.4307 12.9746 24.0918 13.8555C23.9492 14.2266 23.7432 14.3359 23.3555 14.334C18.9297 14.3203 14.5049 14.334 10.0791 14.3145C9.6084 14.3125 9.42871 14.4121 9.4209 14.9102C9.41211 15.4668 9.41602 16.0195 9.42871 16.5742C9.4375 17.002 9.60742 17.0859 9.99805 17.082C12.0166 17.0645 14.0342 17.0742 16.0527 17.0742C18.127 17.0742 20.2002 17.0859 22.2744 17.0645C22.7471 17.0605 22.8066 17.168 22.6133 17.5879C22.2119 18.4609 21.8301 19.3457 21.4932 20.2461C21.3262 20.6895 21.0771 20.7949 20.6279 20.793C17.5732 20.7734 14.5176 20.7812 11.4629 20.7832C10.8154 20.7832 10.8008 20.7969 11.1426 21.3594C12.9727 24.377 15.6992 25.998 19.1631 26.3672C21.832 26.6523 24.3125 26.0332 26.5303 24.4883C26.8613 24.2578 26.998 24.2988 27.1748 24.6523C27.7383 25.7754 28.3164 26.8926 28.9268 27.9922C29.1338 28.3633 29.085 28.5352 28.7314 28.7734C24.6416 31.5098 20.2168 32.0703 15.5742 30.6445C10.7793 29.1738 7.49707 25.9941 5.70898 21.3047C5.54492 20.875 5.33887 20.7637 4.91016 20.7715C3.30664 20.7949 1.70215 20.7812 0 20.7812Z" fill-rule="nonzero" fill="#FFFFFF"/>
	</g>
</svg>
