<svg width="35.790039" height="32.826172" viewBox="0 0 35.79 32.8262" fill="none" xmlns="http://www.w3.org/2000/svg" xmlns:xlink="http://www.w3.org/1999/xlink">
	<defs/>
	<mask id="mask1_2266" mask-type="alpha" maskUnits="userSpaceOnUse" x="0.000000" y="0.000000" width="35.790039" height="32.826172">
		<rect id="Rectangle 72" width="35.790154" height="32.825890" fill="#707070"/>
	</mask>
	<g mask="url(#mask1_2266)">
		<path id="Tracé 7" d="M3.97168 18.1934C4.44336 17.7656 4.90723 17.3301 5.38867 16.9121C6.03125 16.3555 6.69043 15.8184 7.33789 15.2676C7.99414 14.709 8.64746 14.1445 9.29785 13.5801C9.94043 13.0234 10.5762 12.4551 11.2207 11.9004C11.835 11.3711 12.46 10.8555 13.0771 10.3281C13.7061 9.79297 14.332 9.25195 14.959 8.71289C15.6113 8.15234 16.2646 7.5918 16.916 7.0293C17.0117 6.94727 17.0986 6.85547 17.1885 6.76758C17.5889 6.375 18.0938 6.38281 18.5098 6.74414C19.4678 7.57617 20.4424 8.38867 21.4053 9.21484C22.2451 9.93555 23.0752 10.668 23.915 11.3887C24.7344 12.0918 25.5645 12.7852 26.3828 13.4902C27.373 14.3438 28.3545 15.207 29.3438 16.0605C30.0947 16.709 30.8545 17.3477 31.6074 17.9941C31.71 18.082 31.793 18.1914 31.8857 18.293C31.8643 18.3984 31.8262 18.5059 31.8262 18.6133C31.8232 22.7637 31.8232 26.9121 31.8271 31.0605C31.8271 31.166 31.8701 31.2715 31.8936 31.377C31.7754 32.1426 31.0742 32.6484 30.5283 32.7402C30.4082 32.7188 30.2051 32.5996 30.0859 32.5996C27.4375 32.5957 24.7891 32.5957 22.1406 32.5996C22.0215 32.5996 21.9023 32.6426 21.7822 32.666C21.71 32.5938 21.5576 32.5898 21.4854 32.5156C21.5059 32.4082 21.5439 32.3008 21.5439 32.1934C21.5488 29.502 21.5498 26.8105 21.5459 24.1211C21.5459 24.002 21.4951 23.8848 21.4668 23.7676C21.375 23.1289 20.9053 22.7715 20.3301 22.5664C18.7578 22.5625 17.1846 22.5566 15.6123 22.5566C15.5293 22.5566 15.4473 22.5977 15.3643 22.6191C14.8428 22.7441 14.4668 23.1816 14.3848 23.7637C14.3574 23.8926 14.2451 24.0273 14.2451 24.1582C14.2402 26.8242 14.2412 29.4883 14.2451 32.1543C14.2451 32.2754 14.2822 32.3965 14.3018 32.5156C14.2295 32.5898 14.1572 32.6621 14.084 32.7363C13.9766 32.7148 13.8701 32.6777 13.7627 32.6758C10.7959 32.6523 7.8291 32.6309 4.8623 32.6074C4.80664 32.5781 4.76172 32.5566 4.70605 32.5273C4.69922 32.4922 4.63672 32.4473 4.62891 32.4141C4.26758 32.1426 3.9502 31.8418 3.89453 31.377C3.91797 31.2461 3.96289 31.1152 3.96289 30.9844C3.96875 26.7207 3.96973 22.457 3.97168 18.1934Z" fill-rule="nonzero" fill="#707070"/>
	</g>
	<g mask="url(#mask1_2266)">
		<path id="Tracé 8" d="M28.1641 3.08008C28.4473 3.20898 28.7705 3.29102 28.8623 3.6543C28.8604 5.33398 28.8555 7.01367 28.8613 8.69531C28.8623 8.79688 28.9463 8.89844 28.9912 9.00195C29.8428 9.74414 30.7832 10.5703 31.6357 11.3105C32.4814 12.0449 33.3311 12.7754 34.1777 13.5078C34.5771 13.8555 34.9922 14.1855 35.3652 14.5586C35.8262 15.0195 35.8984 15.5742 35.6475 16.1758C35.4355 16.6836 34.9365 16.957 34.3408 17.0059C33.8369 17.0469 33.4834 16.8203 33.1387 16.5273C32.2617 15.7852 31.3857 15.0391 30.5166 14.2871C29.5146 13.418 28.5264 12.5332 27.5225 11.666C26.708 10.9648 25.8721 10.2871 25.0566 9.58789C24.2598 8.90234 23.4824 8.19531 22.6875 7.50977C21.8438 6.7832 20.9834 6.07422 20.1387 5.34961C19.5303 4.82617 18.9365 4.28906 18.333 3.76367C18.2012 3.64844 18.0557 3.54883 17.8779 3.41406C17.2949 3.9043 16.7051 4.38867 16.126 4.88672C15.2949 5.59961 14.4727 6.32227 13.6445 7.03711C12.8271 7.74414 12.0068 8.44922 11.1875 9.1543C10.3955 9.83594 9.60254 10.5156 8.80957 11.1953C7.99805 11.8906 7.1875 12.5879 6.375 13.2812C5.33203 14.1719 4.28906 15.0625 3.24121 15.9453C2.85156 16.2754 2.48145 16.6523 2.03906 16.8848C1.55957 17.1367 1.00195 17.084 0.560547 16.7383C0.105469 16.3848 -0.0566406 15.8887 0.0175781 15.2988C0.102539 14.6133 0.654297 14.3223 1.08984 13.9336C1.74316 13.3496 2.41016 12.7812 3.07227 12.209C3.66895 11.6934 4.26758 11.1777 4.86621 10.666C5.52344 10.1035 6.18262 9.54492 6.83984 8.98438C7.48633 8.43359 8.13477 7.88477 8.77734 7.32812C9.60059 6.61719 10.417 5.89648 11.2402 5.18359C11.835 4.66992 12.4385 4.16797 13.0332 3.65625C13.6982 3.08594 14.3564 2.50586 15.0205 1.93555C15.6943 1.35742 16.3574 0.767578 17.0537 0.216797C17.4629 -0.105469 18.416 -0.0761719 18.9092 0.355469C20.1182 1.41797 21.3486 2.45703 22.5664 3.50781C23.2598 4.10742 23.9473 4.71289 24.6865 5.35938C24.7109 5.20703 24.7393 5.0957 24.7432 4.98242C24.75 4.7168 24.7725 4.44727 24.7402 4.18555C24.668 3.60742 24.958 3.20703 25.583 3.05469C26.0459 3.07422 26.585 3.13281 27.0469 3.13672C27.3701 3.13867 27.6934 3.09766 28.0166 3.07617C28.0664 3.07812 28.1152 3.07812 28.1641 3.08008Z" fill-rule="nonzero" fill="#707070"/>
	</g>
	<g mask="url(#mask1_2266)">
		<path id="Tracé 9" d="M3.9707 18.1934C3.96973 22.457 3.96777 26.7207 3.96289 30.9844C3.96289 31.1152 3.91797 31.2461 3.89453 31.377C3.89941 31.3516 3.89258 31.2637 3.89258 31.2402C3.89258 27.041 3.8916 22.8418 3.88672 18.6445C3.88672 18.5488 3.8457 18.4551 3.82324 18.3613C3.87207 18.3047 3.92188 18.25 3.9707 18.1934Z" fill-rule="nonzero" fill="#707070"/>
	</g>
	<g mask="url(#mask1_2266)">
		<path id="Tracé 10" d="M31.8945 31.3789C31.8711 31.2734 31.8271 31.168 31.8271 31.0625C31.8232 26.9121 31.8232 22.7637 31.8262 18.6152C31.8262 18.5078 31.8652 18.4004 31.8857 18.293C31.8848 22.5625 31.8291 26.793 31.8271 31.0625C31.8223 31.1348 31.8994 31.3047 31.8945 31.3789Z" fill-rule="nonzero" fill="#707070"/>
	</g>
	<g mask="url(#mask1_2266)">
		<path id="Tracé 11" d="M3.82422 18.3613C3.8457 18.4551 3.8877 18.5488 3.8877 18.6445C3.8916 22.8418 3.89258 27.041 3.89355 31.2402C3.87207 31.1172 3.81641 31.0684 3.81641 30.9453C3.81348 26.7891 3.81445 22.6328 3.81543 18.4746C3.81543 18.4375 3.82031 18.3984 3.82422 18.3613Z" fill-rule="nonzero" fill="#707070"/>
	</g>
	<g mask="url(#mask1_2266)">
		<path id="Tracé 12" d="M31.9082 31.1582C31.9102 26.8887 31.9111 22.6211 31.9131 18.3516C31.9336 18.4844 31.9736 18.6191 31.9736 18.752C31.9766 22.7559 31.9766 26.7598 31.9736 30.7637C31.9736 30.8945 31.9307 31.0273 31.9082 31.1582Z" fill-rule="nonzero" fill="#707070"/>
	</g>
	<g mask="url(#mask1_2266)">
		<path id="Tracé 13" d="M28.9912 9.00195C28.9463 8.90039 28.8613 8.79883 28.8613 8.69531C28.8555 7.01562 28.8604 5.33398 28.8623 3.6543L29.0166 4.05273C29.0117 4.20508 29.0029 4.35547 29.002 4.50586C28.998 6.00391 28.9951 7.50391 28.9912 9.00195Z" fill-rule="nonzero" fill="#707070"/>
	</g>
	<g mask="url(#mask1_2266)">
		<path id="Tracé 14" d="M4.8623 32.6094C7.8291 32.6309 10.7959 32.6523 13.7627 32.6777C13.8701 32.6777 13.9775 32.7168 14.085 32.7363C11.1855 32.7363 8.22754 32.7637 5.32812 32.7637L4.8623 32.6094Z" fill-rule="nonzero" fill="#707070"/>
	</g>
	<g mask="url(#mask1_2266)">
		<path id="Tracé 15" d="M30.4453 32.6641C27.5479 32.666 24.6641 32.7617 21.7666 32.7637C24.6533 32.7617 27.5576 32.6641 30.4453 32.6641Z" fill-rule="nonzero" fill="#707070"/>
	</g>
	<g mask="url(#mask1_2266)">
		<path id="Tracé 16" d="M21.4678 23.7676C21.4951 23.8848 21.5469 24.002 21.5469 24.1191C21.5498 26.8105 21.5488 29.502 21.5439 32.1934C21.5439 32.3008 21.5059 32.4082 21.4854 32.5156C21.4883 29.6191 21.4648 26.6641 21.4678 23.7676Z" fill-rule="nonzero" fill="#707070"/>
	</g>
	<g mask="url(#mask1_2266)">
		<path id="Tracé 17" d="M14.3018 32.5156C14.2822 32.3945 14.2451 32.2754 14.2451 32.1543C14.2412 29.4883 14.2412 26.8242 14.2451 24.1582C14.2461 24.0273 14.2959 23.8984 14.3223 23.7676C14.3242 26.6367 14.3262 29.5059 14.3281 32.375C14.3193 32.4219 14.3105 32.4688 14.3018 32.5156Z" fill-rule="nonzero" fill="#707070"/>
	</g>
	<g mask="url(#mask1_2266)">
		<path id="Tracé 18" d="M21.7656 32.7637C24.6631 32.7617 27.5605 32.7598 30.458 32.7578C30.3252 32.7812 30.1924 32.8223 30.0596 32.8223C27.416 32.8262 24.7715 32.8262 22.1279 32.8223C22.0068 32.8223 21.8867 32.7832 21.7656 32.7637Z" fill-rule="nonzero" fill="#707070"/>
	</g>
	<g mask="url(#mask1_2266)">
		<path id="Tracé 19" d="M21.4678 23.7695C21.4648 26.666 21.4619 29.5605 21.459 32.457C21.4375 32.3867 21.3984 32.3164 21.3984 32.2461C21.3994 29.418 21.4639 26.5957 21.4678 23.7695Z" fill-rule="nonzero" fill="#707070"/>
	</g>
	<g mask="url(#mask1_2266)">
		<path id="Tracé 20" d="M5.32812 32.7617L14.0254 32.7637C13.9043 32.7852 13.7832 32.8223 13.6621 32.8223C11.0195 32.8262 8.37598 32.8262 5.73242 32.8242C5.59766 32.8223 5.46289 32.7832 5.32812 32.7617Z" fill-rule="nonzero" fill="#707070"/>
	</g>
	<g mask="url(#mask1_2266)">
		<path id="Tracé 21" d="M14.3271 32.377C14.3262 29.5078 14.3242 26.6387 14.3223 23.7695C14.3252 26.5723 14.3916 29.3711 14.3916 32.1738C14.3916 32.2422 14.3496 32.3086 14.3271 32.377Z" fill-rule="nonzero" fill="#707070"/>
	</g>
	<g mask="url(#mask1_2266)">
		<path id="Tracé 22" d="M28.9912 9.00195C28.9941 7.50195 28.9971 6.00391 29.002 4.50586C29.002 4.35352 29.0107 4.20312 29.0156 4.05273C29.0381 4.16016 29.0801 4.26758 29.0801 4.375C29.084 5.94531 28.9922 7.43164 28.9912 9.00195Z" fill-rule="nonzero" fill="#707070"/>
	</g>
	<g mask="url(#mask1_2266)">
		<path id="Tracé 23" d="M15.3643 22.6191C15.4473 22.5977 15.5293 22.5566 15.6123 22.5566C17.1846 22.5566 18.7578 22.5625 20.3301 22.5664C20.2471 22.5859 20.1641 22.623 20.0801 22.623C18.5088 22.625 16.9365 22.6211 15.3643 22.6191Z" fill-rule="nonzero" fill="#707070"/>
	</g>
	<g mask="url(#mask1_2266)">
		<path id="Tracé 24" d="M28.0166 3.07617C27.6934 3.09766 27.3701 3.13867 27.0469 3.13477C26.584 3.13281 26.1221 3.09766 25.6592 3.07617C25.9131 3.07617 26.2412 3.04688 26.4951 3.04883C27.002 3.05664 27.5098 3.06641 28.0166 3.07617Z" fill-rule="nonzero" fill="#707070"/>
	</g>
	<g mask="url(#mask1_2266)">
		<path id="Tracé 25" d="M28.0166 3.07617C27.5098 3.06836 27.002 3.05859 26.4951 3.04883C27.0518 3.05859 27.6074 3.07031 28.1641 3.08008C28.1152 3.07812 28.0664 3.07812 28.0166 3.07617Z" fill-rule="nonzero" fill="#707070"/>
	</g>
	<g mask="url(#mask1_2266)">
		<path id="Tracé 26" d="" fill-rule="nonzero" fill="#707070"/>
	</g>
	<g mask="url(#mask1_2266)">
		<path id="Tracé 27" d="M4.70605 32.5273C4.76172 32.5586 4.81738 32.5879 4.87305 32.6191C4.81738 32.5879 4.76172 32.5586 4.70605 32.5273Z" fill-rule="nonzero" fill="#707070"/>
	</g>
	<g mask="url(#mask1_2266)">
		<path id="Tracé 28" d="M25.7344 3.04688C25.708 3.03906 25.6084 3.06055 25.583 3.05273L25.7344 3.04688Z" fill-rule="nonzero" fill="#707070"/>
	</g>
	<g mask="url(#mask1_2266)">
		<path id="Tracé 29" d="M30.4443 32.6641C27.5576 32.666 24.6699 32.666 21.7822 32.668C21.9014 32.6445 22.0215 32.6016 22.1406 32.5996C24.7891 32.5977 27.4375 32.5977 30.085 32.5996C30.2051 32.6016 30.3252 32.6426 30.4443 32.6641Z" fill-rule="nonzero" fill="#707070"/>
	</g>
</svg>
