<svg width="29.435547" height="28.753906" viewBox="0 0 29.4355 28.7539" fill="none" xmlns="http://www.w3.org/2000/svg" xmlns:xlink="http://www.w3.org/1999/xlink">
	<desc>
			Created with Pixso.
	</desc>
	<defs/>
	<mask id="mask1_351" mask-type="alpha" maskUnits="userSpaceOnUse" x="0.000000" y="0.000000" width="29.435547" height="28.753906">
		<rect id="Rectangle 56" width="29.435543" height="28.754705" fill="#707070"/>
	</mask>
	<g mask="url(#mask1_351)">
		<path id="Tracé 3" d="M29.4297 14.9102C29.4199 14.5449 29.4082 14.168 29.3643 13.7852C29.3428 13.5977 29.3184 13.4102 29.2891 13.2227C28.8516 10.3652 27.5449 7.8457 25.4033 5.72852C24.2061 4.54492 22.7773 3.57031 21.1572 2.83398C20.5352 2.55078 20.0332 2.67773 19.7207 2.83398C19.2061 3.0918 18.9082 3.56641 18.9248 4.10352C18.9424 4.64648 19.2646 5.08984 19.834 5.34961C21.5264 6.11914 22.9395 7.20312 24.0342 8.57227C26.0469 11.0898 26.791 13.9004 26.2461 16.9258C25.7412 19.7227 24.2402 22.0137 21.7832 23.7363C19.0195 25.6719 15.8936 26.3496 12.4902 25.7461C9.39355 25.1992 6.88477 23.6641 5.03418 21.1855C3.85938 19.6133 3.18945 17.8164 3.04297 15.8457C2.91211 14.084 3.23242 12.3828 3.99414 10.7891C5.1582 8.35547 7.04883 6.52148 9.61328 5.33984C10.4043 4.97656 10.7256 4.17188 10.3633 3.4707C10.1826 3.12305 9.87695 2.86523 9.50195 2.74414C9.11328 2.62109 8.67773 2.65234 8.27734 2.83594C5.41211 4.14258 3.20508 6.11719 1.71777 8.70703C0.248047 11.2637 -0.282227 14.0449 0.140625 16.9727C0.475586 19.2832 1.41211 21.3965 2.9248 23.2539C5.17871 26.0215 8.17188 27.7793 11.8213 28.4805C12.7773 28.6621 13.7432 28.7559 14.7139 28.7559C15.7432 28.7559 16.7764 28.6523 17.8066 28.4453C20.3486 27.9375 22.5947 26.877 24.4824 25.2969C27.6914 22.6074 29.3584 19.1816 29.4355 15.1113L29.4297 14.9102Z" fill-rule="nonzero" fill="#707070"/>
	</g>
	<g mask="url(#mask1_351)">
		<path id="Tracé 4" d="M13.7041 12.6641C13.9902 12.9043 14.3389 13.0293 14.7002 13.0293C14.9111 13.0293 15.1279 12.9863 15.3379 12.8984C15.8896 12.6719 16.2188 12.1895 16.2188 11.6055L16.2178 1.5332C16.2188 1.4707 16.2188 1.36523 16.2148 1.30273C16.1875 0.863281 15.9297 0.458984 15.5254 0.21875C15.1211 -0.0214844 14.6152 -0.0664062 14.1738 0.0957031C13.8145 0.226562 13.2119 0.580078 13.2119 1.46484L13.2109 6.73438L13.2109 8.55859C13.2119 9.5625 13.2119 10.5684 13.21 11.5723C13.209 12.1289 13.4785 12.4727 13.7041 12.6641Z" fill-rule="nonzero" fill="#707070"/>
	</g>
</svg>
