<svg width="25.318359" height="26.888672" viewBox="0 0 25.3184 26.8887" fill="none" xmlns="http://www.w3.org/2000/svg" xmlns:xlink="http://www.w3.org/1999/xlink">
	<desc>
			Created with Pixso.
	</desc>
	<defs/>
	<mask id="mask1_2315" mask-type="alpha" maskUnits="userSpaceOnUse" x="0.000000" y="0.000000" width="25.318359" height="26.888672">
		<rect id="Rectangle 81" width="25.318090" height="26.889160" fill="#707070"/>
	</mask>
	<g mask="url(#mask1_2315)">
		<path id="Tracé 52" d="M0 0L0.279297 0L24.9688 0C25.3057 0 25.3057 0 25.3057 0.349609C25.3047 8.7207 25.3037 17.0918 25.3037 25.4629C25.3037 25.8457 25.2998 26.2285 25.3174 26.6113C25.3271 26.8281 25.2539 26.8887 25.04 26.8887C21.9004 26.8828 18.7617 26.8867 15.623 26.8867C10.9219 26.8867 6.22168 26.8867 1.52148 26.8867L0 26.8867L0 0ZM22.9678 2.35938C22.9189 2.35547 22.8701 2.34961 22.8223 2.34961C16.0469 2.34961 9.27246 2.34961 2.49805 2.35156C2.44434 2.35156 2.39062 2.35938 2.34473 2.36328L2.34473 20.3887C2.80371 20.3633 3.24609 20.3457 3.6875 20.3105C3.74414 20.3066 3.83203 20.2285 3.8418 20.1738C4.01074 19.2773 4.36133 18.4551 4.81543 17.6719C5.54688 16.4121 6.49414 15.3457 7.71289 14.5469C8.24414 14.1973 8.8252 13.9277 9.40332 13.6113C8.46387 12.5586 7.94043 11.334 8.12988 9.83984C8.31836 8.35156 9.04883 7.21484 10.291 6.44727C11.916 5.44531 14.4658 5.52539 16.127 7.4375C17.375 8.87305 17.7764 11.6191 15.8076 13.6582C18.8662 14.8965 20.7578 17.1328 21.4844 20.3672C21.7354 20.3672 21.9795 20.375 22.2227 20.3633C22.4688 20.3535 22.7139 20.3242 22.999 20.3008C22.999 17.3145 22.999 14.3379 23 11.3633C23 8.37695 22.9658 5.3457 22.9678 2.35938ZM19.5576 20.3281C18.8467 17.4062 16.25 15.1875 13.1943 14.9688C9.18945 14.6797 6.49512 17.418 5.70605 20.3281L19.5576 20.3281ZM15.3096 10.3555C15.334 8.91797 14.1465 7.64648 12.5029 7.68164C11.1074 7.71094 9.97363 8.94336 9.94727 10.2969C9.91602 11.8887 11.1719 13.0059 12.5234 13.0703C14.1465 13.1484 15.3418 11.8145 15.3096 10.3555Z" fill-rule="nonzero" fill="#707070"/>
	</g>
</svg>
